<?xml version="1.0" encoding="UTF-8"?>
<svg width="81px" height="54px" viewBox="0 0 81 54" version="1.1" xmlns="http://www.w3.org/2000/svg" xmlns:xlink="http://www.w3.org/1999/xlink">
    <!-- Generator: Sketch 53.2 (72643) - https://sketchapp.com -->
    <title>ServiceRocket Wordmark White</title>
    <desc>Created with Sketch.</desc>
    <g id="Page-1" stroke="none" stroke-width="1" fill="none" fill-rule="evenodd">
        <g id="Desktop-HD" transform="translate(-20.000000, -20.000000)" fill="#FFFFFF">
            <g id="ServiceRocket-Wordmark-White" transform="translate(20.000000, 20.000000)">
                <g>
                    <path d="M14.7814414,17.6814159 C14.2418014,17.0362832 13.6083111,16.4389381 12.9278955,15.8654867 C12.2240174,15.2920354 11.5201392,14.7424779 10.7693358,14.1929204 C9.90121945,13.5477876 9.10349087,12.9265487 8.3761501,12.3530973 C7.64880934,11.779646 7.01531899,11.1823009 6.47567907,10.5849558 C5.93603915,9.98761062 5.53717486,9.34247788 5.23216099,8.64955752 C4.95060972,7.95663717 4.78637149,7.2159292 4.78637149,6.37964602 C4.78637149,5.8539823 4.8567593,5.35221239 5.02099754,4.82654867 C5.18523578,4.30088496 5.44332443,3.82300885 5.77180091,3.36902655 C6.12373999,2.93893805 6.54606689,2.58053097 7.0387816,2.29380531 C7.55495891,2.00707965 8.11806144,1.86371681 8.77501439,1.86371681 C9.85429424,1.86371681 10.6754854,2.07876106 11.1916627,2.50884956 C11.7078401,2.93893805 12.1067043,3.41681416 12.364793,3.91858407 C12.6228817,4.42035398 12.8575077,4.89823009 13.0452086,5.32831858 C13.2329094,5.75840708 13.5379233,5.97345133 13.9367876,5.97345133 C14.030638,5.97345133 14.1714136,5.97345133 14.3121892,5.94955752 C14.4764275,5.92566372 14.6172031,5.87787611 14.7579787,5.80619469 C14.8987544,5.73451327 15.03953,5.61504425 15.1333804,5.44778761 C15.2272309,5.30442478 15.2976187,5.08938053 15.2976187,4.82654867 C15.2976187,4.44424779 15.4149317,4.08584071 15.6495578,3.77522124 C15.8841838,3.46460177 16.0014968,3.10619469 16.0014968,2.74778761 C16.0014968,2.29380531 15.7903334,1.88761062 15.3680065,1.52920354 C14.9456796,1.17079646 14.4295023,0.907964602 13.7725493,0.669026549 C13.1155964,0.453982301 12.4117182,0.286725664 11.6374522,0.167256637 C10.8631863,0.0477876106 10.1358455,0 9.40850473,0 C8.47000052,0 7.5080337,0.143362832 6.52260428,0.430088496 C5.53717486,0.716814159 4.62213325,1.17079646 3.80094206,1.76814159 C2.97975088,2.38938053 2.29933532,3.20176991 1.783158,4.18141593 C1.26698069,5.16106195 1.00889203,6.37964602 1.00889203,7.78938053 C1.00889203,8.72123894 1.22005548,9.60530973 1.66584498,10.4415929 C2.08817187,11.2778761 2.6512744,12.0902655 3.33168996,12.8548673 C4.01210551,13.619469 4.78637149,14.360177 5.65448788,15.100885 C6.52260428,15.8176991 7.39072068,16.5345133 8.28229968,17.2274336 C8.89232742,17.6814159 9.45542995,18.159292 9.99506987,18.6132743 C10.5347098,19.0672566 11.0039619,19.5212389 11.4028262,19.9752212 C11.8016905,20.4292035 12.130167,20.859292 12.364793,21.2893805 C12.5994191,21.719469 12.7167321,22.1256637 12.7167321,22.5079646 C12.7167321,22.9858407 12.5524938,23.4159292 12.2005548,23.7743363 C11.8486157,24.1088496 11.4497514,24.3955752 10.9570367,24.6106195 C10.464322,24.8256637 9.99506987,24.9690265 9.50235516,25.0646018 C9.00964044,25.160177 8.61077615,25.2318584 8.35268749,25.2318584 C7.9303606,25.2318584 7.36725807,25.1840708 6.71030512,25.1362832 C6.02988957,25.0646018 5.39639922,24.9212389 4.76290888,24.6823009 C4.12941854,24.4433628 3.58977861,24.1088496 3.12052651,23.6787611 C2.67473701,23.2486726 2.44011095,22.6752212 2.44011095,21.9345133 C2.44011095,21.2893805 2.53396137,20.7876106 2.69819961,20.4053097 C2.86243785,20.0469027 2.97975088,19.760177 3.02667609,19.6168142 C2.04124666,19.8318584 1.29044329,20.1424779 0.774265976,20.5725664 C0.258088659,21.0026549 0,21.6238938 0,22.3884956 C0,23.2247788 0.281551264,23.9415929 0.821191186,24.5389381 C1.36083111,25.1123894 2.06470927,25.5902655 2.88590045,25.9725664 C3.73055425,26.3548673 4.62213325,26.6176991 5.63102528,26.7610619 C6.6164547,26.9283186 7.55495891,27 8.44653792,27 C9.33811692,27 10.2531585,26.9283186 11.1916627,26.7849558 C12.130167,26.6415929 12.9982833,26.3787611 13.7960119,26.020354 C14.5702779,25.6380531 15.2272309,25.160177 15.7434082,24.5389381 C16.2595855,23.9176991 16.5176741,23.1292035 16.5176741,22.1734513 C16.5176741,21.3132743 16.3534359,20.5247788 16.0249594,19.8079646 C15.7434082,19.019469 15.3210813,18.3265487 14.7814414,17.6814159 Z M37.9390328,17.0362832 C37.8451824,17.0362832 37.7278694,17.060177 37.6105563,17.1318584 C37.4932433,17.2035398 37.4228555,17.3707965 37.3524677,17.6575221 C37.3055425,17.9681416 37.211692,18.4460177 37.0709164,19.0911504 C36.9301408,19.7362832 36.7424399,20.3814159 36.5312765,21.0026549 C36.2966504,21.6238938 36.0385618,22.1973451 35.7335479,22.6752212 C35.428534,23.1530973 35.1000576,23.3920354 34.7011933,23.3920354 C34.4665672,23.3920354 34.2788664,23.2247788 34.1380907,22.8902655 C33.9973151,22.5557522 33.8800021,22.1734513 33.7861517,21.719469 C33.7157638,21.2893805 33.6688386,20.859292 33.6219134,20.4530973 C33.5984508,20.0469027 33.5749882,19.760177 33.5749882,19.5929204 C33.5749882,17.6575221 33.8096143,15.7938053 34.2554038,14.0256637 C34.2554038,13.9778761 34.2788664,13.8584071 34.3257916,13.7150442 C34.3727168,13.5716814 34.4431046,13.380531 34.5134924,13.1893805 C34.5838802,12.9982301 34.6542681,12.8070796 34.7011933,12.6159292 C34.7481185,12.4247788 34.7715811,12.2814159 34.7715811,12.1619469 C34.7715811,11.8513274 34.6073429,11.6123894 34.2554038,11.4451327 C33.9034647,11.2778761 33.5046004,11.1584071 33.0588109,11.0867257 C32.6130214,11.0150442 32.1437693,10.9672566 31.6979798,10.9433628 C31.2287277,10.919469 30.9002512,10.8955752 30.7125504,10.8716814 L30.5952373,10.8716814 C30.3606113,10.8238938 30.2198357,10.7761062 30.1494478,10.7283186 C30.07906,10.680531 30.0321348,10.5849558 30.0321348,10.3938053 L30.0321348,10.1548673 L30.07906,9.29469027 L30.07906,9.10353982 C30.07906,8.5300885 29.8678966,8.24336283 29.4221071,8.24336283 C29.2344062,8.24336283 29.0467054,8.26725664 28.8120793,8.31504425 C28.5774533,8.36283186 28.3662898,8.43451327 28.1551264,8.5539823 C27.9439629,8.64955752 27.7797247,8.76902655 27.6624117,8.91238938 C27.5450986,9.03185841 27.4747108,9.17522124 27.4747108,9.34247788 L27.5920239,11.6362832 C27.6389491,11.9946903 27.6624117,12.3292035 27.6624117,12.639823 C27.6624117,12.9504425 27.6624117,13.2371681 27.6624117,13.5238938 L27.6624117,14.5274336 C27.6624117,14.7902655 27.6624117,15.0053097 27.6389491,15.1964602 C27.6154865,15.3876106 27.6154865,15.5309735 27.6154865,15.6504425 L27.6154865,15.9132743 C27.5920239,16.3911504 27.5450986,16.9168142 27.4981734,17.4902655 C27.4512482,18.0876106 27.3104726,18.8283186 27.1227718,19.7362832 C27.0993091,19.8557522 27.0758465,19.9513274 27.0523839,20.0469027 C26.8881457,20.5247788 26.7004449,20.9548673 26.4423562,21.3610619 C26.1373423,21.8150442 25.7619406,22.1973451 25.2926885,22.5079646 C24.8234364,22.7946903 24.2134087,22.9619469 23.4860679,22.9619469 C22.946428,22.9619469 22.5006385,22.8424779 22.1486994,22.6035398 C21.7732977,22.3646018 21.4917465,22.0778761 21.2571204,21.7433628 C21.0224944,21.4088496 20.8582561,21.0982301 20.7409431,20.7637168 C20.6236301,20.4292035 20.5767049,20.1663717 20.5767049,19.999115 L20.5767049,18.8761062 C20.7644057,18.9238938 20.9286439,18.9716814 21.1163448,18.9955752 C21.3040456,19.019469 21.4682839,19.0433628 21.5855969,19.0433628 C22.2894751,19.0433628 22.9229654,18.8283186 23.4860679,18.3982301 C24.0491705,17.9681416 24.5184226,17.4424779 24.8938242,16.8212389 C25.2692259,16.2 25.5742398,15.5070796 25.7619406,14.7663717 C25.9731041,14.0256637 26.0669545,13.3566372 26.0669545,12.7353982 L26.0200293,12.1858407 C25.9965667,11.7557522 25.9027163,11.3256637 25.7150154,10.919469 C25.5273146,10.5132743 25.2926885,10.1548673 24.9876747,9.84424779 C24.6826608,9.53362832 24.3307217,9.29469027 23.9318574,9.07964602 C23.5329931,8.88849558 23.0872036,8.79292035 22.6414141,8.79292035 C21.7029099,8.79292035 20.9051813,9.10353982 20.2482284,9.74867257 C19.5912754,10.3699115 19.0516355,11.1584071 18.605846,12.1141593 C18.1835191,13.0460177 17.8550427,14.0734513 17.6673418,15.1486726 C17.4561784,16.2238938 17.3623279,17.2274336 17.3623279,18.1353982 C17.3623279,19.0672566 17.4561784,19.9513274 17.6438792,20.7876106 C17.83158,21.6238938 18.1600565,22.340708 18.5823834,22.9619469 C19.0281729,23.5831858 19.5912754,24.0610619 20.271691,24.419469 C20.9521066,24.7778761 21.7967603,24.9690265 22.7821898,24.9690265 C23.8145444,24.9690265 24.7061234,24.7300885 25.4569268,24.2761062 C26.2077301,23.8221239 26.8177579,23.2486726 27.28701,22.5557522 C27.7797247,21.8628319 28.1316638,21.1221239 28.3428272,20.3336283 C28.5070655,19.7362832 28.6243785,19.1628319 28.6713037,18.6371681 C28.7886167,18.0876106 28.9059298,17.4902655 29.0232428,16.7973451 C29.1405558,16.0327434 29.2344062,15.2442478 29.3517193,14.4079646 L29.4924949,13.1654867 C29.5159575,13.0699115 29.5628827,12.9743363 29.6332705,12.9026549 C29.7036583,12.8309735 29.8913592,12.7831858 30.1963731,12.7831858 C30.3840739,12.7831858 30.5717747,12.8070796 30.7594756,12.8548673 C30.970639,12.9026549 31.0644894,13.0460177 31.0644894,13.2371681 C31.0410268,13.9061947 30.9941016,14.5752212 30.9002512,15.2681416 C30.8298634,15.9610619 30.7829382,16.6300885 30.7829382,17.299115 C30.7829382,17.8964602 30.8298634,18.6371681 30.9002512,19.5212389 C30.970639,20.4053097 31.1348773,21.2654867 31.3929659,22.0778761 C31.6510546,22.8902655 32.0029937,23.5831858 32.4957084,24.1566372 C32.9884231,24.7300885 33.6219134,25.0168142 34.4431046,25.0168142 C35.193908,25.0168142 35.8273983,24.7300885 36.320113,24.1327434 C36.8128278,23.5353982 37.211692,22.8663717 37.4932433,22.1017699 C37.7747946,21.3371681 37.985958,20.620354 38.103271,19.9274336 C38.2205841,19.2345133 38.2675093,18.8044248 38.2675093,18.6371681 C38.2909719,18.5415929 38.3144345,18.3743363 38.3144345,18.159292 C38.3144345,17.9442478 38.3378971,17.800885 38.3378971,17.7530973 C38.4786727,17.2752212 38.3144345,17.0362832 37.9390328,17.0362832 Z M20.9051813,16.4867257 C20.9051813,16.319469 20.9521066,15.9371681 21.045957,15.339823 C21.1398074,14.7663717 21.3040456,14.1451327 21.5152091,13.5238938 C21.7263725,12.9026549 22.0079238,12.3292035 22.3364003,11.8513274 C22.6648767,11.3734513 23.063741,11.1106195 23.5095305,11.1106195 C23.8145444,11.1106195 24.0257079,11.2300885 24.1430209,11.4690265 C24.2603339,11.7079646 24.3072591,11.9230088 24.3072591,12.1380531 L24.3072591,12.3769912 C24.3072591,12.7353982 24.2603339,13.1893805 24.1430209,13.7628319 C24.0491705,14.3362832 23.8849322,14.8858407 23.6737688,15.4353982 C23.4626053,15.9849558 23.1810541,16.4389381 22.829115,16.8212389 C22.4771759,17.2035398 22.054849,17.3946903 21.5386717,17.3946903 L21.3509708,17.3946903 C21.1163448,17.3946903 20.9755692,17.3230088 20.9521066,17.179646 C20.9051813,17.0362832 20.8817187,16.8451327 20.8817187,16.6300885 L20.8817187,16.4867257 L20.9051813,16.4867257 Z M50.4915267,15.0530973 C50.4211388,15.0530973 50.2569006,15.1486726 50.0457372,15.3637168 C49.8111111,15.5787611 49.5295598,15.6743363 49.1776208,15.6743363 C49.1072329,15.6743363 48.9429947,15.6265487 48.7083687,15.5309735 C48.4737426,15.4353982 48.3564296,15.3637168 48.3564296,15.2920354 C48.332967,14.8380531 48.3095044,14.4079646 48.3095044,14.0256637 C48.2860418,13.6433628 48.2860418,13.2849558 48.2625791,12.9504425 C48.2625791,12.5920354 48.2156539,12.2575221 48.1452661,11.899115 C48.0748783,11.540708 47.9810279,11.1584071 47.8637149,10.7522124 C47.8167896,10.6566372 47.7698644,10.5132743 47.7464018,10.3460177 C47.7229392,10.1787611 47.6525514,10.059292 47.5117758,9.98761062 C47.4648506,9.96371681 47.3710001,9.93982301 47.2302245,9.8920354 C47.0894489,9.84424779 46.9486733,9.82035398 46.784435,9.79646018 C46.6201968,9.77256637 46.4794211,9.74867257 46.3151829,9.72477876 C46.1744073,9.70088496 46.0805569,9.67699115 45.9867064,9.67699115 C45.9632438,9.67699115 45.892856,9.70088496 45.7990056,9.72477876 C45.7051552,9.77256637 45.5878421,9.82035398 45.4939917,9.86814159 C45.4001413,9.9159292 45.3062909,9.96371681 45.2124405,10.0353982 C45.11859,10.0831858 45.0716648,10.1309735 45.0716648,10.1548673 C44.9778144,10.2982301 44.883964,10.5132743 44.8135762,10.8 C44.7431884,11.0628319 44.6962631,11.3495575 44.6728005,11.660177 C44.6258753,11.9469027 44.6024127,12.2575221 44.6024127,12.520354 C44.5789501,12.8070796 44.5789501,13.0460177 44.5789501,13.2610619 L44.5789501,14.0734513 C44.6258753,14.599115 44.7431884,15.0292035 44.9308892,15.3876106 C45.11859,15.7460177 45.3297535,16.0566372 45.5409169,16.319469 C45.7520804,16.5823009 45.9397812,16.7734513 46.1040195,16.940708 C46.2682577,17.0840708 46.3386455,17.2274336 46.3386455,17.3707965 C46.3386455,17.7053097 46.3151829,18.1831858 46.2682577,18.8283186 C46.2213325,19.4495575 46.1040195,20.0946903 45.9632438,20.7159292 C45.8224682,21.3371681 45.5878421,21.9106195 45.3062909,22.3884956 C45.0247396,22.8663717 44.6493379,23.1053097 44.2035484,23.1053097 C43.7342963,23.1053097 43.335432,22.8902655 43.0538808,22.4362832 C42.7723295,21.9823009 42.5377035,21.4566372 42.3969278,20.8353982 C42.2561522,20.2141593 42.1388392,19.5929204 42.0919139,18.9477876 C42.0449887,18.3265487 42.0215261,17.8247788 42.0215261,17.4663717 C42.0215261,16.5345133 42.0684513,15.6026549 42.1388392,14.6946903 C42.209227,13.7628319 42.3030774,12.8548673 42.443853,11.9469027 C42.4673156,11.779646 42.4907782,11.5884956 42.5377035,11.3734513 C42.5846287,11.1345133 42.6080913,10.8955752 42.6550165,10.6566372 C42.7019417,10.4176991 42.7254043,10.1787611 42.7488669,9.96371681 C42.7723295,9.74867257 42.7957921,9.58141593 42.7957921,9.4380531 C42.7957921,9.36637168 42.7254043,9.29469027 42.5611661,9.24690265 C42.3969278,9.19911504 42.2326896,9.15132743 42.0449887,9.12743363 C41.8572879,9.10353982 41.6695871,9.07964602 41.5053488,9.07964602 C41.317648,9.07964602 41.2237976,9.07964602 41.1534097,9.07964602 C40.8718585,9.07964602 40.6137698,9.10353982 40.4026064,9.17522124 C40.1679803,9.24690265 39.9098917,9.29469027 39.651803,9.31858407 C39.2294761,11.5884956 39.0183127,13.8106195 39.0183127,16.0088496 C39.0183127,16.9646018 39.0652379,17.9681416 39.1356257,19.019469 C39.2060135,20.0707965 39.4171769,21.0504425 39.7456534,21.9345133 C40.0741299,22.8185841 40.5903072,23.559292 41.2707228,24.1327434 C41.9511383,24.7061947 42.9131051,24.9929204 44.109698,24.9929204 C44.227011,24.9929204 44.3677867,24.9929204 44.4850997,24.9929204 C44.6024127,24.9929204 44.7431884,24.9690265 44.8605014,24.9451327 C45.4705291,24.8973451 45.9867064,24.5867257 46.4324959,24.0132743 C46.8782854,23.439823 47.2536871,22.7707965 47.5352384,22.0061947 C47.8167896,21.2415929 48.0514157,20.4292035 48.1921913,19.6168142 C48.332967,18.780531 48.4268174,18.1115044 48.4268174,17.5619469 L48.4268174,17.3707965 C48.7083687,17.3469027 48.9899199,17.3230088 49.2714712,17.2752212 C49.5530224,17.2274336 49.8111111,17.1557522 50.0457372,17.060177 C50.2803632,16.9646018 50.468064,16.7973451 50.5853771,16.6061947 C50.7261527,16.3911504 50.7965405,16.1044248 50.7965405,15.7221239 C50.7965405,15.6504425 50.7730779,15.5309735 50.7496153,15.3637168 C50.6792275,15.1486726 50.6088397,15.0530973 50.4915267,15.0530973 Z M52.3685351,6.54690265 C52.8847124,6.85752212 53.4008897,7.00088496 53.9405296,7.00088496 C53.9874548,7.00088496 54.1282305,6.97699115 54.3159313,6.95309735 C54.5270948,6.92920354 54.7382582,6.88141593 54.9494217,6.83362832 C55.1605851,6.78584071 55.3717486,6.69026549 55.5359868,6.57079646 C55.7236876,6.45132743 55.7940755,6.3079646 55.7940755,6.11681416 C55.7940755,6.04513274 55.7236876,5.90176991 55.582912,5.71061947 C55.4421364,5.51946903 55.348286,5.37610619 55.3013607,5.30442478 C54.9963469,4.61150442 54.5974826,4.13362832 54.1047679,3.87079646 C53.6120532,3.6079646 53.1193385,3.48849558 52.6031611,3.48849558 C52.5327733,3.48849558 52.3919977,3.51238938 52.1573716,3.56017699 C51.9462082,3.6079646 51.7115821,3.67964602 51.4769561,3.79911504 C51.24233,3.89469027 51.007704,4.01415929 50.8200031,4.10973451 C50.6323023,4.20530973 50.5384519,4.32477876 50.5384519,4.46814159 C50.5384519,4.5159292 50.5853771,4.61150442 50.6792275,4.73097345 C50.7730779,4.85044248 50.8669283,4.9699115 50.9138536,5.04159292 C51.3596431,5.75840708 51.8523578,6.26017699 52.3685351,6.54690265 Z M80.4767363,17.179646 C80.2890354,17.179646 80.1717224,17.2513274 80.1013346,17.3707965 C80.0309468,17.4902655 79.9605589,17.7530973 79.8667085,18.1115044 C79.7728581,18.6610619 79.6320825,19.2106195 79.4678442,19.7840708 C79.303606,20.3575221 79.0689799,20.8831858 78.7639661,21.3610619 C78.4589522,21.8150442 78.0835505,22.1973451 77.6142984,22.5079646 C77.1450463,22.7946903 76.5350186,22.9619469 75.8076778,22.9619469 C75.2680379,22.9619469 74.8222484,22.8424779 74.4703093,22.6035398 C74.0949076,22.3646018 73.8133563,22.0778761 73.5787303,21.7433628 C73.3441042,21.4088496 73.179866,21.0982301 73.062553,20.7637168 C72.9452399,20.4292035 72.8983147,20.1663717 72.8983147,19.999115 L72.8983147,18.8761062 C73.0860156,18.9238938 73.2502538,18.9716814 73.4379547,18.9955752 C73.6256555,19.019469 73.7898937,19.0433628 73.9072068,19.0433628 C74.6110849,19.0433628 75.2445753,18.8283186 75.8076778,18.3982301 C76.3707803,17.9681416 76.8400324,17.4424779 77.2154341,16.8212389 C77.5908358,16.2 77.8958497,15.5070796 78.0835505,14.7663717 C78.294714,14.0256637 78.3885644,13.3566372 78.3885644,12.7353982 L78.3416392,12.1858407 C78.3181766,11.7557522 78.2243261,11.3256637 78.0366253,10.919469 C77.8489245,10.5132743 77.6142984,10.1548673 77.3092845,9.84424779 C77.0042707,9.53362832 76.6523316,9.29469027 76.2534673,9.07964602 C75.854603,8.88849558 75.4088135,8.79292035 74.963024,8.79292035 C74.0245198,8.79292035 73.2267912,9.10353982 72.5698383,9.74867257 C71.9128853,10.3699115 71.3732454,11.1584071 70.9274559,12.1141593 C70.505129,13.0460177 70.1766525,14.0734513 69.9654891,15.1486726 C69.7543256,16.2238938 69.6604752,17.2274336 69.6604752,18.1353982 C69.6604752,18.5415929 69.6839378,18.9238938 69.7074004,19.3061947 C69.6370126,19.2584071 69.5431622,19.2106195 69.4258492,19.2106195 L69.3085361,19.2106195 C69.1208353,19.2106195 68.956597,19.4017699 68.7923588,19.8079646 C68.6281206,20.2141593 68.3934945,20.6442478 68.1119433,21.1221239 C67.830392,21.6 67.4315277,22.0300885 66.9622756,22.4362832 C66.4930235,22.8424779 65.8595331,23.0336283 65.0618046,23.0336283 L64.6394777,22.9858407 C63.48981,22.8902655 62.715544,22.2929204 62.2697545,21.2176991 C61.823965,20.1424779 61.6128016,18.8761062 61.6128016,17.3707965 C61.6128016,16.9884956 61.6597268,16.4389381 61.7535772,15.7460177 C61.8474276,15.0530973 62.0116659,14.360177 62.2462919,13.6672566 C62.480918,12.9743363 62.8328571,12.3769912 63.255184,11.8513274 C63.6775108,11.3256637 64.2406134,11.0867257 64.8975663,11.0867257 C65.3433558,11.1106195 65.6718323,11.2778761 65.8829957,11.5646018 C66.0941592,11.8513274 66.2583974,12.1858407 66.3757105,12.520354 C66.4930235,12.8787611 66.6337991,13.1893805 66.7511121,13.5 C66.8684252,13.7867257 67.1030512,13.9539823 67.4080651,13.9778761 C67.6896164,13.9778761 67.8773172,13.8345133 67.947705,13.5477876 C68.0415554,13.2610619 68.0884806,12.8309735 68.0884806,12.2336283 C68.0884806,11.540708 68.0884806,10.9672566 68.065018,10.5371681 C68.065018,10.1070796 68.0180928,9.74867257 67.9711676,9.4619469 C67.9242424,9.24690265 67.6896164,9.07964602 67.3142147,8.93628319 C66.9153504,8.79292035 66.4930235,8.72123894 66.0003088,8.72123894 C65.0148793,8.72123894 64.0529125,8.96017699 63.0909457,9.4619469 C62.1289789,9.96371681 61.3077877,10.6088496 60.6039095,11.4451327 C59.7827184,12.3769912 59.266541,13.4044248 58.9849898,14.5513274 C58.8207515,15.2442478 58.7269011,15.8893805 58.6565133,16.5345133 C58.5626629,16.6300885 58.5157377,16.7495575 58.4688125,16.9168142 L58.3984246,17.299115 C58.2811116,17.920354 58.140336,18.5176991 57.9760978,19.0911504 C57.8118595,19.6646018 57.6006961,20.1663717 57.3191448,20.5486726 C57.1549066,20.7637168 56.9437431,21.0026549 56.6856545,21.2893805 C56.4041032,21.5761062 56.0287015,21.719469 55.5359868,21.719469 C55.2075103,21.719469 54.9494217,21.6 54.7382582,21.3849558 C54.5270948,21.1699115 54.3863191,20.8831858 54.2924687,20.5247788 C54.1986183,20.1663717 54.1516931,19.7840708 54.1282305,19.3539823 C54.1047679,18.9238938 54.0813053,18.5176991 54.0813053,18.0876106 L54.0813053,15.7699115 C54.1047679,15.3159292 54.1282305,14.9336283 54.1516931,14.6230088 C54.1751557,14.3362832 54.1986183,14.0734513 54.2220809,13.8584071 C54.2455435,13.6433628 54.2690061,13.4761062 54.2924687,13.3088496 C54.3159313,13.1415929 54.3393939,12.9504425 54.3628565,12.7353982 C54.456707,12.2336283 54.57402,11.8513274 54.691333,11.660177 C54.808646,11.4451327 54.8555712,11.3017699 54.8321086,11.2300885 C54.8321086,10.919469 54.7147956,10.680531 54.4801696,10.5132743 C54.2455435,10.3460177 53.9639922,10.2265487 53.6589784,10.1548673 C53.3539645,10.0831858 53.0724132,10.0353982 52.790862,10.0115044 C52.5093107,9.98761062 52.3450725,9.98761062 52.2512221,9.98761062 C51.9696708,9.98761062 51.7585073,10.0115044 51.5942691,10.0353982 C51.4534935,10.059292 51.3127178,10.1070796 51.1719422,10.1787611 C51.0546292,10.2504425 50.9842414,10.3221239 50.9842414,10.4415929 C50.9842414,10.4893805 51.007704,10.5849558 51.0780918,10.7044248 C51.1484796,10.8238938 51.1954048,10.9433628 51.2188674,11.0628319 C51.2657926,11.2778761 51.2892552,11.4929204 51.3127178,11.7318584 C51.3127178,11.9707965 51.3361804,12.1858407 51.3361804,12.400885 L51.3361804,16.6539823 C51.3361804,17.2513274 51.3361804,17.7530973 51.3127178,18.159292 C51.2892552,18.5654867 51.2657926,18.8761062 51.2657926,19.0911504 C51.2657926,19.7840708 51.3831057,20.500885 51.6177317,21.2654867 C51.8523578,22.0061947 52.2981473,22.6274336 52.9551002,23.0814159 C53.6120532,23.5115044 54.2690061,23.7504425 54.9024965,23.7504425 C55.700225,23.7504425 56.4041032,23.559292 56.9437431,23.1769912 C57.5068456,22.7946903 57.9526351,22.3168142 58.3280368,21.7433628 C58.5392003,21.3849558 58.7269011,21.0265487 58.8911394,20.620354 C58.8911394,20.6442478 58.8911394,20.6681416 58.914602,20.6681416 C59.1726906,21.5044248 59.5011671,22.2212389 59.9469566,22.7946903 C60.3692835,23.3681416 60.8854608,23.8221239 61.4720259,24.1566372 C62.0585911,24.4911504 62.6686188,24.6823009 63.3021092,24.7539823 C63.4194222,24.7778761 63.5601978,24.8017699 63.6540482,24.8017699 C63.7713613,24.8017699 63.8886743,24.8017699 64.0059873,24.8017699 C65.2964306,24.8017699 66.4226357,24.4672566 67.3611399,23.8221239 C68.2996441,23.1530973 69.0973727,22.1017699 69.7074004,20.620354 C69.7543256,20.500885 69.7777882,20.3814159 69.8247134,20.2619469 C69.848176,20.4292035 69.8951013,20.5964602 69.9185639,20.739823 C70.1062647,21.5761062 70.4112786,22.2929204 70.8570681,22.9141593 C71.3028576,23.5353982 71.8659601,24.0132743 72.5463757,24.3716814 C73.2267912,24.7300885 74.071445,24.9212389 75.0568744,24.9212389 C76.0892291,24.9212389 76.9808081,24.6823009 77.7316114,24.2283186 C78.4824148,23.7743363 79.0924425,23.200885 79.5851573,22.5079646 C80.0544094,21.8150442 80.429811,21.0743363 80.6409745,20.2858407 C80.8756005,19.4973451 80.9929136,18.7566372 80.9929136,18.1115044 L80.9929136,17.8486726 C81.0398388,17.4185841 80.8521379,17.179646 80.4767363,17.179646 Z M73.1564034,16.4867257 C73.1564034,16.319469 73.2033286,15.9371681 73.297179,15.339823 C73.3910295,14.7663717 73.5552677,14.1451327 73.7664311,13.5238938 C73.9775946,12.9026549 74.2591458,12.3292035 74.5876223,11.8513274 C74.9160988,11.3734513 75.3149631,11.1106195 75.7607526,11.1106195 C76.0657665,11.1106195 76.2769299,11.2300885 76.3942429,11.4690265 C76.511556,11.7079646 76.5584812,11.9230088 76.5584812,12.1380531 L76.5584812,12.3769912 C76.5584812,12.7353982 76.511556,13.1893805 76.4177055,13.7628319 C76.3238551,14.3362832 76.1596169,14.8858407 75.9484534,15.4353982 C75.73729,15.9849558 75.4557387,16.4389381 75.1037996,16.8212389 C74.7518606,17.2035398 74.3295337,17.3946903 73.8133563,17.3946903 L73.6256555,17.3946903 C73.3910295,17.3946903 73.2737164,17.3230088 73.2267912,17.179646 C73.179866,17.0362832 73.179866,16.8451327 73.179866,16.6300885 L73.179866,16.4867257 L73.1564034,16.4867257 Z" id="Shape" fill-rule="nonzero"/>
                    <path d="M4.22064097,54 L0,54 L0,28.3728814 L5.90889736,28.3728814 C10.6219464,28.3728814 13.037091,30.4593805 13.037091,35.9333723 C13.037091,40.0572764 11.5129706,41.7264757 10.0826423,42.3892461 L13.6467391,54 L9.37920215,54 L6.40130547,43.395675 C5.86200134,43.4693162 4.97097714,43.4938632 4.24408897,43.4938632 L4.24408897,54 L4.22064097,54 Z M4.22064097,39.8854471 L5.72131331,39.8854471 C7.99576983,39.8854471 8.83989803,39.0017534 8.83989803,35.9579193 C8.83989803,32.9140853 7.99576983,32.0303916 5.72131331,32.0303916 L4.22064097,32.0303916 L4.22064097,39.8854471 Z" id="Shape" fill-rule="nonzero"/>
                    <path d="M14.0869565,34.4121079 C14.0869565,30.8108557 16.1063538,27.9152542 20.4701087,27.9152542 C24.8338636,27.9152542 26.8532609,30.8351885 26.8532609,34.4121079 L26.8532609,47.5031463 C26.8532609,51.0800658 24.8338636,54 20.4701087,54 C16.1063538,54 14.0869565,51.0800658 14.0869565,47.5031463 L14.0869565,34.4121079 Z M18.2418083,47.4058152 C18.2418083,49.3037725 18.7756719,50.2284183 20.4468972,50.2284183 C22.1181225,50.2284183 22.6519862,49.3037725 22.6519862,47.4058152 L22.6519862,34.5337718 C22.6519862,32.6358146 22.1181225,31.7111687 20.4468972,31.7111687 C18.7756719,31.7111687 18.2418083,32.6114818 18.2418083,34.5337718 L18.2418083,47.4058152 Z" id="Shape" fill-rule="nonzero"/>
                    <path d="M37.5966809,36.7480553 L37.5966809,34.7770997 C37.5966809,32.6358146 36.6291791,31.7111687 35.5436892,31.7111687 C33.8446617,31.7111687 33.3019167,32.6114818 33.3019167,34.5337718 L33.3019167,47.4058152 C33.3019167,49.3037725 33.8446617,50.2284183 35.5436892,50.2284183 C37.0775336,50.2284183 37.5966809,49.3037725 37.5966809,47.6491431 L37.5966809,44.5832121 L41.8206522,44.5832121 L41.8206522,47.5031463 C41.8206522,51.0800658 39.7676605,54 35.5436892,54 C31.1073395,54 29.0543478,51.0800658 29.0543478,47.5031463 L29.0543478,34.4121079 C29.0543478,30.8108557 31.1073395,27.9152542 35.5436892,27.9152542 C39.7676605,27.9152542 41.8206522,31.0785163 41.8206522,34.8744308 L41.8206522,36.7480553 L37.5966809,36.7480553 L37.5966809,36.7480553 Z" id="Path"/>
                    <polygon id="Path" points="42.2608696 54 42.2608696 28.3728814 46.51656 28.3728814 46.51656 37.8480421 46.5878844 37.8480421 51.0575481 28.3728814 55.3132385 28.3728814 50.7247008 37.9216832 55.9076087 54 51.5805938 54 48.109472 42.0701344 48.0381476 42.0701344 46.51656 44.9175921 46.51656 54"/>
                    <polygon id="Path" points="56.3478261 54 56.3478261 28.3728814 67.7582609 28.3728814 67.7582609 32.226768 60.6029674 32.226768 60.6029674 38.805377 66.0942391 38.805377 66.0942391 42.6347165 60.6029674 42.6347165 60.6029674 50.1706604 68.2336957 50.1706604 68.2336957 54"/>
                    <polygon id="Path" points="73.0233613 32.226768 69.1141304 32.226768 69.1141304 28.3728814 81 28.3728814 81 32.226768 77.0907691 32.226768 77.0907691 54 73.0233613 54"/>
                    <polygon id="Path" points="77.7784091 33.6803039 77.4782609 33.6803039 77.4782609 33.4067797 78.3586957 33.4067797 78.3586957 33.6803039 78.0585474 33.6803039 78.0585474 35.2372881 77.7784091 35.2372881"/>
                    <polygon id="Path" points="80.1195652 33.4067797 80.1195652 35.2372881 79.8381148 35.2372881 79.8381148 33.8065459 79.8164647 33.8065459 79.5350143 35.2372881 79.383464 35.2372881 79.0803635 33.8065459 79.0803635 33.8065459 79.0803635 35.2372881 78.798913 35.2372881 78.798913 33.4067797 79.2319138 33.4067797 79.4484141 34.4798364 79.4484141 34.4798364 79.6865645 33.4067797"/>
                </g>
            </g>
        </g>
    </g>
</svg>